<?xml version="1.0" encoding="UTF-8"?>
<svg version="1.1" xmlns="http://www.w3.org/2000/svg" width="190" height="40">
<path d="M0 0 C4 0 4 0 5.5 1.3125 C5.995 1.869375 6.49 2.42625 7 3 C7.721875 3.433125 8.44375 3.86625 9.1875 4.3125 C11 6 11 6 11.25 9.1875 C11.1675 10.115625 11.085 11.04375 11 12 C12.32 12.66 13.64 13.32 15 14 C15.08107583 15.93681161 15.13922475 17.8745934 15.1875 19.8125 C15.23970703 21.43091797 15.23970703 21.43091797 15.29296875 23.08203125 C14.96213449 26.37714043 14.43701366 26.9422155 12 29 C11.773125 29.94875 11.54625 30.8975 11.3125 31.875 C9.44086317 36.33127816 6.40736256 38.18470699 2 40 C-2.17777778 39.82222222 -2.17777778 39.82222222 -4 38 C-4.04063832 36.33382885 -4.042721 34.66611905 -4 33 C-3.05125 33.165 -2.1025 33.33 -1.125 33.5 C1.80168901 34.0526635 1.80168901 34.0526635 4 34 C4 33.34 4 32.68 4 32 C3.05125 32.020625 2.1025 32.04125 1.125 32.0625 C-2 32 -2 32 -4 31 C-3.06045053 28.57283053 -2.54189724 27.28029168 -0.1875 26.0625 C2.88397835 25.97474348 4.52638378 27.28221096 7 29 C7 28.01 7 27.02 7 26 C7.66 26 8.32 26 9 26 C9.33 23.03 9.66 20.06 10 17 C8.68 16.67 7.36 16.34 6 16 C7.32 17.32 8.64 18.64 10 20 C9.505 21.485 9.505 21.485 9 23 C7.63875 22.9690625 7.63875 22.9690625 6.25 22.9375 C3.57327412 22.9889755 1.53011948 23.2215017 -1 24 C-0.45276317 20.62537285 0.0549 18.91765 2 16 C0.68 16.33 -0.64 16.66 -2 17 C-2.02578125 17.62648438 -2.0515625 18.25296875 -2.078125 18.8984375 C-2.13484375 19.71570313 -2.1915625 20.53296875 -2.25 21.375 C-2.31960937 22.59316406 -2.31960937 22.59316406 -2.390625 23.8359375 C-3 26 -3 26 -4.96875 27.125 C-5.6390625 27.41375 -6.309375 27.7025 -7 28 C-8.28254644 30.53770003 -8.28254644 30.53770003 -9 33 C-9.598125 32.34 -10.19625 31.68 -10.8125 31 C-12.87501834 28.6626154 -12.87501834 28.6626154 -16 29 C-16.33 29.99 -16.66 30.98 -17 32 C-16.21625 32.28875 -15.4325 32.5775 -14.625 32.875 C-12 34 -12 34 -10 36 C-10.375 38.125 -10.375 38.125 -11 40 C-12.48030272 39.18957164 -13.95921142 38.37659652 -15.4375 37.5625 C-16.26121094 37.11003906 -17.08492187 36.65757813 -17.93359375 36.19140625 C-20 35 -20 35 -21 34 C-21.04080783 32.00041636 -21.04254356 29.99954746 -21 28 C-22.32 27.34 -23.64 26.68 -25 26 C-26.33532094 15.96036478 -26.33532094 15.96036478 -23.34765625 11.57421875 C-20.06605012 8.69632515 -17.63105386 6.98420833 -13.17578125 7.02734375 C-10.68702104 7.51373483 -8.37986669 8.13052887 -6 9 C-6 9.99 -6 10.98 -6 12 C-12.28571429 14.42857143 -12.28571429 14.42857143 -16 13 C-15.67 13.99 -15.34 14.98 -15 16 C-13.02 16 -11.04 16 -9 16 C-9.165 16.763125 -9.33 17.52625 -9.5 18.3125 C-10.09145396 21.03596236 -10.09145396 21.03596236 -10 24 C-9.34 23.67 -8.68 23.34 -8 23 C-7.68573231 20.7058459 -7.62075424 18.44226779 -7.5390625 16.12890625 C-7 14 -7 14 -4.9609375 12.71484375 C-4.31382813 12.47894531 -3.66671875 12.24304687 -3 12 C-3 10.35 -3 8.7 -3 7 C-1.68 7.33 -0.36 7.66 1 8 C1.33 9.32 1.66 10.64 2 12 C3.32 11.67 4.64 11.34 6 11 C5.31114204 7.78938622 5.31114204 7.78938622 2.4375 6.625 C1.633125 6.08875 0.82875 5.5525 0 5 C-0.3125 2.3125 -0.3125 2.3125 0 0 Z M-21 19 C-21 20.65 -21 22.3 -21 24 C-20.01 24.33 -19.02 24.66 -18 25 C-17.34 24.01 -16.68 23.02 -16 22 C-17.65 21.01 -19.3 20.02 -21 19 Z " fill="#9667E3" transform="translate(25,0)"/>
<path d="M0 0 C2.1796875 1.16015625 2.1796875 1.16015625 4 3 C4.390625 5.69921875 4.390625 5.69921875 4.25 8.6875 C4.21390625 9.68136719 4.1778125 10.67523438 4.140625 11.69921875 C4.07101563 12.83810547 4.07101563 12.83810547 4 14 C4.99 14.33 5.98 14.66 7 15 C6.67 15.99 6.34 16.98 6 18 C3.05610218 19.17755913 2.10046087 19.03348696 -1 18 C-2.155 18.20625 -3.31 18.4125 -4.5 18.625 C-8 19 -8 19 -9.73828125 17.84765625 C-11.47599158 15.30295969 -11.11738327 13.82168288 -10.6875 10.8125 C-10.56761719 9.91144531 -10.44773437 9.01039062 -10.32421875 8.08203125 C-10.21722656 7.39496094 -10.11023438 6.70789063 -10 6 C-10.66 5.67 -11.32 5.34 -12 5 C-14.60931266 5.89363605 -14.60931266 5.89363605 -17 7 C-17.33 10.3 -17.66 13.6 -18 17 C-19.65 17.33 -21.3 17.66 -23 18 C-23 12.39 -23 6.78 -23 1 C-15.625 1.0625 -15.625 1.0625 -13.30712891 1.09008789 C-8.57088365 1.10966959 -4.75972502 -0.380778 0 0 Z M-6 5 C-6.33 5.66 -6.66 6.32 -7 7 C-5.35 7 -3.7 7 -2 7 C-2 6.34 -2 5.68 -2 5 C-3.32 5 -4.64 5 -6 5 Z M-4 11 C-4.33 12.32 -4.66 13.64 -5 15 C-3.68 14.34 -2.36 13.68 -1 13 C-1.33 12.34 -1.66 11.68 -2 11 C-2.66 11 -3.32 11 -4 11 Z " fill="#EB9B66" transform="translate(131,13)"/>
<path d="M0 0 C0.515625 0.37125 1.03125 0.7425 1.5625 1.125 C1.3975 1.66125 1.2325 2.1975 1.0625 2.75 C0.44709283 5.23033398 0.44709283 5.23033398 0.625 8.25 C0.5625 11.125 0.5625 11.125 -1.4375 13.125 C-2.4275 13.125 -3.4175 13.125 -4.4375 13.125 C-4.4375 13.785 -4.4375 14.445 -4.4375 15.125 C-2.1275 15.785 0.1825 16.445 2.5625 17.125 C2.87465468 20.55870148 2.96715084 22.50116329 1.0625 25.4375 C-2.34421679 27.73703383 -5.32968527 28.49486071 -9.4375 28.125 C-11.81668905 27.04583197 -13.3959071 25.80931414 -15.4375 24.125 C-15.293125 23.485625 -15.14875 22.84625 -15 22.1875 C-13.36199871 13.64569607 -13.36199871 13.64569607 -14.4375 5.125 C-10.36988049 1.42716408 -5.62460654 -2.01908953 0 0 Z M-7.4375 5.125 C-7.7675 6.445 -8.0975 7.765 -8.4375 9.125 C-7.1175 8.795 -5.7975 8.465 -4.4375 8.125 C-4.7675 7.135 -5.0975 6.145 -5.4375 5.125 C-6.0975 5.125 -6.7575 5.125 -7.4375 5.125 Z M-9.4375 20.125 C-9.4375 20.785 -9.4375 21.445 -9.4375 22.125 C-7.7875 22.125 -6.1375 22.125 -4.4375 22.125 C-4.4375 21.465 -4.4375 20.805 -4.4375 20.125 C-6.0875 20.125 -7.7375 20.125 -9.4375 20.125 Z " fill="#EC9C6F" transform="translate(103.4375,11.875)"/>
<path d="M0 0 C0.91523438 -0.01224609 1.83046875 -0.02449219 2.7734375 -0.03710938 C3.65257812 -0.03904297 4.53171875 -0.04097656 5.4375 -0.04296875 C6.24058594 -0.04707764 7.04367188 -0.05118652 7.87109375 -0.05541992 C10 0.1875 10 0.1875 13 2.1875 C13.22107787 4.9760289 13.28107535 7.53403181 13.1875 10.3125 C13.16719727 11.44365234 13.16719727 11.44365234 13.14648438 12.59765625 C13.11109985 14.46124127 13.05729167 16.32445978 13 18.1875 C11.0625 18.75 11.0625 18.75 9 19.1875 C7.12175109 17.30925109 7.60897603 14.14814724 7.4375 11.625 C7.31181641 9.82869141 7.31181641 9.82869141 7.18359375 7.99609375 C7.12300781 7.06925781 7.06242187 6.14242188 7 5.1875 C5.68 5.5175 4.36 5.8475 3 6.1875 C3 9.8175 3 13.4475 3 17.1875 C1.35 17.5175 -0.3 17.8475 -2 18.1875 C-3.73956658 16.44793342 -3.37190386 13.9938378 -3.5625 11.625 C-3.64628906 10.61308594 -3.73007813 9.60117187 -3.81640625 8.55859375 C-3.87699219 7.77613281 -3.93757812 6.99367188 -4 6.1875 C-4.66 6.1875 -5.32 6.1875 -6 6.1875 C-6.03738281 6.95835938 -6.07476562 7.72921875 -6.11328125 8.5234375 C-6.17902344 9.52632812 -6.24476563 10.52921875 -6.3125 11.5625 C-6.37050781 12.56023438 -6.42851562 13.55796875 -6.48828125 14.5859375 C-6.65714844 15.44445313 -6.82601562 16.30296875 -7 17.1875 C-7.99 17.8475 -8.98 18.5075 -10 19.1875 C-10.99 18.8575 -11.98 18.5275 -13 18.1875 C-13 12.5775 -13 6.9675 -13 1.1875 C-8.68219317 -0.25176894 -4.52237315 0.00318477 0 0 Z " fill="#E9A981" transform="translate(152,12.8125)"/>
<path d="M0 0 C0 0.99 0 1.98 0 3 C-6.28571429 5.42857143 -6.28571429 5.42857143 -10 4 C-9.67 4.99 -9.34 5.98 -9 7 C-7.02 7 -5.04 7 -3 7 C-3.52268466 9.76276177 -4.10869587 12.3260876 -5 15 C-4.01 15.66 -3.02 16.32 -2 17 C-1.8125 20.125 -1.8125 20.125 -2 23 C-2.99 23 -3.98 23 -5 23 C-5.66 22.01 -6.32 21.02 -7 20 C-7.99 20 -8.98 20 -10 20 C-10.33 20.99 -10.66 21.98 -11 23 C-10.21625 23.28875 -9.4325 23.5775 -8.625 23.875 C-6 25 -6 25 -4 27 C-4.375 29.125 -4.375 29.125 -5 31 C-6.48030272 30.18957164 -7.95921142 29.37659652 -9.4375 28.5625 C-10.26121094 28.11003906 -11.08492187 27.65757813 -11.93359375 27.19140625 C-14 26 -14 26 -15 25 C-15.04080783 23.00041636 -15.04254356 20.99954746 -15 19 C-16.32 18.34 -17.64 17.68 -19 17 C-20.33532094 6.96036478 -20.33532094 6.96036478 -17.34765625 2.57421875 C-11.51737758 -2.53880244 -7.11066284 -2.59784133 0 0 Z M-15 10 C-15 11.65 -15 13.3 -15 15 C-14.01 15.33 -13.02 15.66 -12 16 C-11.34 15.01 -10.68 14.02 -10 13 C-11.65 12.01 -13.3 11.02 -15 10 Z " fill="#8E69D7" transform="translate(19,9)"/>
<path d="M0 0 C-0.33 1.65 -0.66 3.3 -1 5 C-3.64 5 -6.28 5 -9 5 C-9.33 6.32 -9.66 7.64 -10 9 C-7.36 9 -4.72 9 -2 9 C-1.4375 10.9375 -1.4375 10.9375 -1 13 C-2 14 -2 14 -5.5625 14.0625 C-6.696875 14.041875 -7.83125 14.02125 -9 14 C-9.33 15.32 -9.66 16.64 -10 18 C-6.7 18.33 -3.4 18.66 0 19 C0.33 19.99 0.66 20.98 1 22 C-1 24 -1 24 -3.96875 24.23046875 C-5.1340625 24.21628906 -6.299375 24.20210937 -7.5 24.1875 C-8.6653125 24.18105469 -9.830625 24.17460938 -11.03125 24.16796875 C-14 24 -14 24 -16 23 C-16.19635974 19.54210946 -16.38058252 16.08367803 -16.5625 12.625 C-16.61857422 11.64015625 -16.67464844 10.6553125 -16.73242188 9.640625 C-16.80493164 8.22910156 -16.80493164 8.22910156 -16.87890625 6.7890625 C-16.9260376 5.91975098 -16.97316895 5.05043945 -17.02172852 4.15478516 C-17 2 -17 2 -16 0 C-13.1640625 -0.44921875 -13.1640625 -0.44921875 -9.625 -0.6875 C-8.46226563 -0.77386719 -7.29953125 -0.86023438 -6.1015625 -0.94921875 C-3 -1 -3 -1 0 0 Z " fill="#DF9E77" transform="translate(67,8)"/>
<path d="M0 0 C3.35079307 0.06084449 5.29784622 0.11767311 8.3125 1.625 C10.51807708 5.93590065 10.72414642 10.51181917 10.6875 15.3125 C10.3575 16.3025 10.0275 17.2925 9.6875 18.3125 C8.0375 18.3125 6.3875 18.3125 4.6875 18.3125 C4.3575 14.3525 4.0275 10.3925 3.6875 6.3125 C2.3675 6.6425 1.0475 6.9725 -0.3125 7.3125 C-0.6425 10.9425 -0.9725 14.5725 -1.3125 18.3125 C-2.6325 18.6425 -3.9525 18.9725 -5.3125 19.3125 C-7.1980253 17.4269747 -6.44496689 14.73481169 -6.44921875 12.23046875 C-6.44535156 11.43253906 -6.44148438 10.63460938 -6.4375 9.8125 C-6.44136719 9.01457031 -6.44523437 8.21664063 -6.44921875 7.39453125 C-6.43693939 0.1619892 -6.43693939 0.1619892 0 0 Z " fill="#EF9B6B" transform="translate(76.3125,12.6875)"/>
<path d="M0 0 C0 0.99 0 1.98 0 3 C-6.28571429 5.42857143 -6.28571429 5.42857143 -10 4 C-9.33131686 7.11332248 -9.33131686 7.11332248 -6.9375 8.1875 C-6.298125 8.455625 -5.65875 8.72375 -5 9 C-10.625 11 -10.625 11 -14 11 C-14 13.64 -14 16.28 -14 19 C-17.875 18.125 -17.875 18.125 -19 17 C-19.85787062 11.86896252 -20.37584667 7.01185127 -17.34375 2.578125 C-11.52317504 -2.54562056 -7.10647257 -2.59631044 0 0 Z " fill="#9D68E6" transform="translate(19,9)"/>
<path d="M0 0 C0.66 0.33 1.32 0.66 2 1 C1.67 3.64 1.34 6.28 1 9 C2.27875 8.979375 3.5575 8.95875 4.875 8.9375 C8.75 8.875 8.75 8.875 11 10 C11.33 10.66 11.66 11.32 12 12 C12.33 10.35 12.66 8.7 13 7 C12.34 6.67 11.68 6.34 11 6 C12.32 6.33 13.64 6.66 15 7 C15.31215468 10.43370148 15.40465084 12.37616329 13.5 15.3125 C10.09328321 17.61203383 7.10781473 18.36986071 3 18 C0.62081095 16.92083197 -0.9584071 15.68431414 -3 14 C-2.09276387 9.31261335 -1.0452733 4.65806256 0 0 Z M3 10 C3 10.66 3 11.32 3 12 C4.65 12 6.3 12 8 12 C8 11.34 8 10.68 8 10 C6.35 10 4.7 10 3 10 Z " fill="#EEA778" transform="translate(91,22)"/>
<path d="M0 0 C4.62 0 9.24 0 14 0 C14 1.32 14 2.64 14 4 C11.36 4 8.72 4 6 4 C5.34 5.65 4.68 7.3 4 9 C6.31 9.33 8.62 9.66 11 10 C11 10.33 11 10.66 11 11 C8.69 11 6.38 11 4 11 C4 12.0725 4 13.145 4 14.25 C4 16.83333333 4 19.41666667 4 22 C2.68 21.67 1.36 21.34 0 21 C0 14.07 0 7.14 0 0 Z " fill="#EC9662" transform="translate(52,9)"/>
<path d="M0 0 C4.29 0 8.58 0 13 0 C14.32229189 2.64458379 14.09677194 4.67761301 14.0625 7.625 C14.05347656 8.62789062 14.04445312 9.63078125 14.03515625 10.6640625 C14.02355469 11.43492188 14.01195312 12.20578125 14 13 C13.01 13.33 12.02 13.66 11 14 C10 13 10 13 9.90234375 10.49609375 C9.91394531 9.48675781 9.92554688 8.47742188 9.9375 7.4375 C9.94652344 6.42558594 9.95554688 5.41367187 9.96484375 4.37109375 C9.97644531 3.58863281 9.98804688 2.80617188 10 2 C7.52733235 2.34444881 7.52733235 2.34444881 5 3 C3.85647084 5.28705831 3.89665561 6.59264762 3.9375 9.125 C3.958125 10.40375 3.97875 11.6825 4 13 C2.68 13.33 1.36 13.66 0 14 C0 9.38 0 4.76 0 0 Z " fill="#F1935C" transform="translate(140,15)"/>
<path d="M0 0 C1.32 0.33 2.64 0.66 4 1 C4.12375 1.639375 4.2475 2.27875 4.375 2.9375 C4.58125 3.618125 4.7875 4.29875 5 5 C5.66 5.33 6.32 5.66 7 6 C4.94766315 8.2477975 3.99332739 9.0022242 1 10 C0.67 12.97 0.34 15.94 0 19 C-1.65 19.66 -3.3 20.32 -5 21 C-5.66 19.68 -6.32 18.36 -7 17 C-6.34 16.67 -5.68 16.34 -5 16 C-4.68573231 13.7058459 -4.62075424 11.44226779 -4.5390625 9.12890625 C-4 7 -4 7 -1.9609375 5.71484375 C-1.31382813 5.47894531 -0.66671875 5.24304688 0 5 C0 3.35 0 1.7 0 0 Z " fill="#8461D2" transform="translate(22,7)"/>
<path d="M0 0 C3.1648567 -0.21578568 5.3469377 -0.34519007 8.1875 1.15625 C10 3 10 3 10.390625 5.69921875 C10.32101563 7.17841797 10.32101563 7.17841797 10.25 8.6875 C10.21390625 9.68136719 10.1778125 10.67523438 10.140625 11.69921875 C10.07101563 12.83810547 10.07101563 12.83810547 10 14 C10.99 14.33 11.98 14.66 13 15 C12.67 15.99 12.34 16.98 12 18 C9.05610218 19.17755913 8.10046087 19.03348696 5 18 C2.6593935 18.27769908 0.32375692 18.60539977 -2 19 C-2 16.16032769 -1.59732819 13.76264289 -1 11 C1.31 10.34 3.62 9.68 6 9 C6 9.99 6 10.98 6 12 C4.68 12 3.36 12 2 12 C2 12.66 2 13.32 2 14 C2.99 13.67 3.98 13.34 5 13 C5 13.66 5 14.32 5 15 C5.66 15 6.32 15 7 15 C7 15.66 7 16.32 7 17 C7.66 17 8.32 17 9 17 C8.91284983 15.06166004 8.80467036 13.1242571 8.6875 11.1875 C8.62949219 10.10855469 8.57148438 9.02960937 8.51171875 7.91796875 C7.9636962 4.79298521 7.5456341 3.81131657 5 2 C2.39388923 1.27802838 2.39388923 1.27802838 0 1 C0 0.67 0 0.34 0 0 Z " fill="#E4A479" transform="translate(125,13)"/>
<path d="M0 0 C0 0.99 0 1.98 0 3 C-5.35652174 5.06956522 -5.35652174 5.06956522 -8.3125 4.75 C-10 4 -10 4 -11 2 C-11 2.99 -11 3.98 -11 5 C-12.98 5.99 -12.98 5.99 -15 7 C-15 7.66 -15 8.32 -15 9 C-15.66 9 -16.32 9 -17 9 C-17.33 7.35 -17.66 5.7 -18 4 C-11.92976621 -2.00240995 -8.05526278 -2.74010988 0 0 Z " fill="#9876D7" transform="translate(19,9)"/>
<path d="M0 0 C2.69082872 0.17635452 5.32851446 0.61835921 8 1 C8 6.28 8 11.56 8 17 C6.68 16.67 5.36 16.34 4 16 C3.96132812 14.62714844 3.96132812 14.62714844 3.921875 13.2265625 C3.86515625 12.03804687 3.8084375 10.84953125 3.75 9.625 C3.70359375 8.44164062 3.6571875 7.25828125 3.609375 6.0390625 C3.34351201 2.88708247 3.34351201 2.88708247 0.953125 1.5859375 C0.30859375 1.39257812 -0.3359375 1.19921875 -1 1 C-0.67 0.67 -0.34 0.34 0 0 Z " fill="#EA925B" transform="translate(156,15)"/>
<path d="M0 0 C0.66 0 1.32 0 2 0 C2.0825 0.61875 2.165 1.2375 2.25 1.875 C2.81258459 4.18437567 2.81258459 4.18437567 5.0625 5.25 C5.701875 5.4975 6.34125 5.745 7 6 C6.360625 6.103125 5.72125 6.20625 5.0625 6.3125 C4.381875 6.539375 3.70125 6.76625 3 7 C2.67 7.99 2.34 8.98 2 10 C3.27875 9.979375 4.5575 9.95875 5.875 9.9375 C9.75 9.875 9.75 9.875 12 11 C12 12.98 12 14.96 12 17 C11.01 16.67 10.02 16.34 9 16 C9.33 15.34 9.66 14.68 10 14 C6.7 13.67 3.4 13.34 0 13 C-1.01675964 8.42458161 -1.29824773 4.54386707 0 0 Z " fill="#F19258" transform="translate(92,18)"/>
<path d="M0 0 C1.65 0 3.3 0 5 0 C5.33 3.63 5.66 7.26 6 11 C6.99 11 7.98 11 9 11 C9 8.69 9 6.38 9 4 C9.33 4 9.66 4 10 4 C10 6.97 10 9.94 10 13 C8.34385343 13.38218767 6.67542976 13.71395102 5 14 C3.26043342 12.26043342 3.62809614 9.8063378 3.4375 7.4375 C3.35371094 6.42558594 3.26992187 5.41367187 3.18359375 4.37109375 C3.12300781 3.58863281 3.06242188 2.80617188 3 2 C2.34 2 1.68 2 1 2 C0.96261719 2.77085938 0.92523438 3.54171875 0.88671875 4.3359375 C0.82097656 5.33882812 0.75523437 6.34171875 0.6875 7.375 C0.62949219 8.37273438 0.57148438 9.37046875 0.51171875 10.3984375 C0.34285156 11.25695313 0.17398438 12.11546875 0 13 C-0.99 13.66 -1.98 14.32 -3 15 C-3.66 14.67 -4.32 14.34 -5 14 C-5 13.34 -5 12.68 -5 12 C-4.01 11.34 -3.02 10.68 -2 10 C-1.95758277 7.66705225 -1.95907063 5.33297433 -2 3 C-1.34 2.01 -0.68 1.02 0 0 Z " fill="#E4A075" transform="translate(145,17)"/>
<path d="M0 0 C3.375 0.3125 3.375 0.3125 7 1 C9.35119399 4.52679099 9.21443452 6.02879485 9.125 10.1875 C9.10695312 11.27417969 9.08890625 12.36085938 9.0703125 13.48046875 C9.03550781 14.72763672 9.03550781 14.72763672 9 16 C8.34 16 7.68 16 7 16 C7 15.34 7 14.68 7 14 C6.34 14 5.68 14 5 14 C5.20625 13.21625 5.4125 12.4325 5.625 11.625 C5.810625 10.325625 5.810625 10.325625 6 9 C5.34 8.34 4.68 7.68 4 7 C4.66 6.34 5.32 5.68 6 5 C5.34 5 4.68 5 4 5 C4 4.34 4 3.68 4 3 C3.01 3 2.02 3 1 3 C0.67 2.01 0.34 1.02 0 0 Z " fill="#ED8F4D" transform="translate(125,14)"/>
<path d="M0 0 C1.8125 1.5 1.8125 1.5 3 3 C2.67 3.99 2.34 4.98 2 6 C1.64763503 7.99673484 1.31165441 9.99650739 1 12 C1.99 12.33 2.98 12.66 4 13 C2.68 13.33 1.36 13.66 0 14 C-0.33 10.04 -0.66 6.08 -1 2 C-2.32 2.33 -3.64 2.66 -5 3 C-5.33 6.63 -5.66 10.26 -6 14 C-7.32 14.33 -8.64 14.66 -10 15 C-9.6803125 14.44699219 -9.360625 13.89398438 -9.03125 13.32421875 C-7.54628508 9.97742281 -7.55571547 6.76384168 -7.34375 3.14453125 C-7.2303125 2.43683594 -7.116875 1.72914062 -7 1 C-4.45132831 -0.27433584 -2.82594567 -0.27570202 0 0 Z " fill="#E39B6E" transform="translate(81,17)"/>
<path d="M0 0 C-0.33 0.66 -0.66 1.32 -1 2 C-2.32 2 -3.64 2 -5 2 C-5 2.66 -5 3.32 -5 4 C-4.01 3.67 -3.02 3.34 -2 3 C-2.50603992 5.16874252 -2.99983813 6.99967627 -4 9 C-5.65 9 -7.3 9 -9 9 C-9 6.03799136 -8.93656229 3.80968687 -8 1 C-4.72494404 -0.89608503 -3.64512471 -1.21504157 0 0 Z " fill="#EA9D6C" transform="translate(132,23)"/>
<path d="M0 0 C0.226875 0.639375 0.45375 1.27875 0.6875 1.9375 C1.82191056 4.24928429 1.82191056 4.24928429 4.375 4.5625 C5.674375 4.7790625 5.674375 4.7790625 7 5 C9.3125 6.5625 9.3125 6.5625 11 8 C10.67 9.32 10.34 10.64 10 12 C8.51969728 11.18957164 7.04078858 10.37659652 5.5625 9.5625 C4.73878906 9.11003906 3.91507812 8.65757813 3.06640625 8.19140625 C1 7 1 7 0 6 C-0.04080783 4.00041636 -0.04254356 1.99954746 0 0 Z " fill="#7D5DC7" transform="translate(4,28)"/>
<path d="M0 0 C6.0546875 -0.1953125 6.0546875 -0.1953125 8 0 C8.66 0.66 9.32 1.32 10 2 C7.69 2 5.38 2 3 2 C3 3.0725 3 4.145 3 5.25 C3 7.83333333 3 10.41666667 3 13 C2.34 13 1.68 13 1 13 C-0.32229189 10.35541621 -0.09677194 8.32238699 -0.0625 5.375 C-0.05347656 4.37210938 -0.04445312 3.36921875 -0.03515625 2.3359375 C-0.02355469 1.56507812 -0.01195312 0.79421875 0 0 Z " fill="#F29454" transform="translate(53,18)"/>
<path d="M0 0 C2.475 0.495 2.475 0.495 5 1 C5 1.99 5 2.98 5 4 C4.34 4 3.68 4 3 4 C3 6.97 3 9.94 3 13 C2.01 13 1.02 13 0 13 C0 8.71 0 4.42 0 0 Z " fill="#F59155" transform="translate(109,15)"/>
<path d="M0 0 C1.32 0.33 2.64 0.66 4 1 C3.01 1 2.02 1 1 1 C1 5.29 1 9.58 1 14 C1.99 14 2.98 14 4 14 C4 11.03 4 8.06 4 5 C4.66 5.33 5.32 5.66 6 6 C5.67 9.3 5.34 12.6 5 16 C3.35 16.33 1.7 16.66 0 17 C0 11.39 0 5.78 0 0 Z " fill="#E29768" transform="translate(108,14)"/>
<path d="M0 0 C1.32 0.33 2.64 0.66 4 1 C4.12375 1.639375 4.2475 2.27875 4.375 2.9375 C4.684375 3.9584375 4.684375 3.9584375 5 5 C5.66 5.33 6.32 5.66 7 6 C4.82575883 8.50037734 3.26954202 9.43628586 0 10 C0 9.01 0 8.02 0 7 C-0.66 6.67 -1.32 6.34 -2 6 C-1.34 5.67 -0.68 5.34 0 5 C0 3.35 0 1.7 0 0 Z " fill="#7A60C0" transform="translate(22,7)"/>
<path d="M0 0 C4 0 4 0 5.625 1.375 C6.07875 1.91125 6.5325 2.4475 7 3 C7.66 3.66 8.32 4.32 9 5 C8.34 5 7.68 5 7 5 C6.67 6.32 6.34 7.64 6 9 C3 7.3125 3 7.3125 0 5 C-0.375 2.25 -0.375 2.25 0 0 Z " fill="#816EC5" transform="translate(25,0)"/>
<path d="M0 0 C2.3431213 0.25561323 4.67843403 0.59270772 7 1 C7.33 1.66 7.66 2.32 8 3 C8.99 3.33 9.98 3.66 11 4 C6.70967742 7.06451613 6.70967742 7.06451613 3.25 6.75 C1 6 1 6 0 5 C-0.04063832 3.33382885 -0.042721 1.66611905 0 0 Z " fill="#735DC0" transform="translate(21,33)"/>
<path d="M0 0 C0.33 0 0.66 0 1 0 C1.08107583 1.93681161 1.13922475 3.8745934 1.1875 5.8125 C1.22230469 6.89144531 1.25710937 7.97039063 1.29296875 9.08203125 C0.96138972 12.38455835 0.44325343 12.9383126 -2 15 C-2.33 16.03125 -2.66 17.0625 -3 18.125 C-3.33 19.07375 -3.66 20.0225 -4 21 C-4.99 21.33 -5.98 21.66 -7 22 C-7 21.01 -7 20.02 -7 19 C-6.34 19 -5.68 19 -5 19 C-5 17.35 -5 15.7 -5 14 C-4.34 14 -3.68 14 -3 14 C-3 13.01 -3 12.02 -3 11 C-2.01 11 -1.02 11 0 11 C0 7.37 0 3.74 0 0 Z " fill="#8F74CE" transform="translate(39,14)"/>
<path d="M0 0 C1.32 0.33 2.64 0.66 4 1 C4.3125 3.8125 4.3125 3.8125 4 7 C1.02723853 9.70251043 -0.78774291 9.98956113 -4.8125 10.1875 C-6.3903125 10.0946875 -6.3903125 10.0946875 -8 10 C-7.67 9.01 -7.34 8.02 -7 7 C-6.01 7 -5.02 7 -4 7 C-2.32900023 6.68911632 -0.66128463 6.35919668 1 6 C1.33 4.35 1.66 2.7 2 1 C1.34 0.67 0.68 0.34 0 0 Z " fill="#EB9D6C" transform="translate(102,28)"/>
<path d="M0 0 C3.17280351 0.43762807 6.05667611 1.77361505 9 3 C8.67 3.66 8.34 4.32 8 5 C5.35139573 5.59355614 2.70802678 5.74209269 0 6 C-0.66 4.68 -1.32 3.36 -2 2 C-1.34 1.34 -0.68 0.68 0 0 Z " fill="#9785E1" transform="translate(5,14)"/>
<path d="M0 0 C2.875 0.1875 2.875 0.1875 6 1 C7.375 3.5625 7.375 3.5625 8 6 C6 7 6 7 2.875 6.0625 C1.92625 5.711875 0.9775 5.36125 0 5 C0 3.35 0 1.7 0 0 Z " fill="#7A5BB3" transform="translate(12,0)"/>
<path d="M0 0 C1 1 1 1 1.09765625 4.59765625 C1.0909822 6.08596867 1.07902183 7.57426432 1.0625 9.0625 C1.05798828 9.82111328 1.05347656 10.57972656 1.04882812 11.36132812 C1.0370068 13.24091871 1.01907078 15.12046899 1 17 C0.67 17 0.34 17 0 17 C0 12.05 0 7.1 0 2 C-2.97 2 -5.94 2 -9 2 C-9.33 1.34 -9.66 0.68 -10 0 C-6.28523623 -1.23825459 -3.81171187 -0.70587257 0 0 Z " fill="#DC9E78" transform="translate(164,14)"/>
<path d="M0 0 C0.33 0.99 0.66 1.98 1 3 C3.31 2.34 5.62 1.68 8 1 C8 2.32 8 3.64 8 5 C6.63875 4.9690625 6.63875 4.9690625 5.25 4.9375 C2.57327412 4.9889755 0.53011948 5.2215017 -2 6 C-1.125 1.125 -1.125 1.125 0 0 Z " fill="#7260B9" transform="translate(26,18)"/>
<path d="M0 0 C6.75 -0.125 6.75 -0.125 9 1 C9 1.99 9 2.98 9 4 C7.02 4.66 5.04 5.32 3 6 C2.01 4.02 1.02 2.04 0 0 Z " fill="#876EBC" transform="translate(10,8)"/>
<path d="M0 0 C0.33 0 0.66 0 1 0 C1.33 2.64 1.66 5.28 2 8 C2.99 8 3.98 8 5 8 C5 5.69 5 3.38 5 1 C5.33 1 5.66 1 6 1 C6 3.97 6 6.94 6 10 C4.34385343 10.38218767 2.67542976 10.71395102 1 11 C0 10 0 10 -0.09765625 7.71484375 C-0.08605469 6.79832031 -0.07445312 5.88179687 -0.0625 4.9375 C-0.05347656 4.01839844 -0.04445312 3.09929688 -0.03515625 2.15234375 C-0.02355469 1.44207031 -0.01195312 0.73179688 0 0 Z " fill="#D8976B" transform="translate(149,20)"/>
<path d="M0 0 C0.33 0 0.66 0 1 0 C1 3.96 1 7.92 1 12 C0.34 12 -0.32 12 -1 12 C-1 11.34 -1 10.68 -1 10 C-1.66 10 -2.32 10 -3 10 C-2.67 8.68 -2.34 7.36 -2 6 C-1.34 6 -0.68 6 0 6 C0 4.02 0 2.04 0 0 Z " fill="#EC955A" transform="translate(133,18)"/>
<path d="M0 0 C2.625 0.9375 2.625 0.9375 5 2 C3.68 2.33 2.36 2.66 1 3 C1.33 3.66 1.66 4.32 2 5 C-1.75 6.125 -1.75 6.125 -4 5 C-2.25 1.125 -2.25 1.125 0 0 Z " fill="#785DB6" transform="translate(25,26)"/>
<path d="M0 0 C0.66 0.33 1.32 0.66 2 1 C2 2.98 2 4.96 2 7 C2.99 7.33 3.98 7.66 5 8 C4.67 8.66 4.34 9.32 4 10 C0.9375 10.625 0.9375 10.625 -2 11 C-2 10.34 -2 9.68 -2 9 C-1.34 8.67 -0.68 8.34 0 8 C0 5.36 0 2.72 0 0 Z " fill="#8666C6" transform="translate(34,5)"/>
<path d="M0 0 C0.99 0.33 1.98 0.66 3 1 C2.67 1.33 2.34 1.66 2 2 C1.76636119 3.84891946 1.58696365 5.70488031 1.4375 7.5625 C1.35371094 8.57441406 1.26992187 9.58632813 1.18359375 10.62890625 C1.12300781 11.41136719 1.06242187 12.19382812 1 13 C-0.32 13.33 -1.64 13.66 -3 14 C-2.68289062 13.44828125 -2.36578125 12.8965625 -2.0390625 12.328125 C-0.87290025 9.71522011 -0.59954289 7.59420998 -0.375 4.75 C-0.30023438 3.85796875 -0.22546875 2.9659375 -0.1484375 2.046875 C-0.09945312 1.37140625 -0.05046875 0.6959375 0 0 Z " fill="#D89770" transform="translate(74,18)"/>
<path d="M0 0 C0.66 0 1.32 0 2 0 C3.35439668 2.70879335 3.06501451 5.00933268 3 8 C2.01 8 1.02 8 0 8 C0 5.36 0 2.72 0 0 Z " fill="#966DE3" transform="translate(32,5)"/>
<path d="M0 0 C0.33 0.66 0.66 1.32 1 2 C0.34 2 -0.32 2 -1 2 C-1 2.99 -1 3.98 -1 5 C-2.98 5.66 -4.96 6.32 -7 7 C-7 6.34 -7 5.68 -7 5 C-7.99 4.67 -8.98 4.34 -10 4 C-6.94736336 3.01879536 -5.05263664 3.01879536 -2 4 C-2 3.01 -2 2.02 -2 1 C-1.34 0.67 -0.68 0.34 0 0 Z " fill="#8865D3" transform="translate(34,25)"/>
<path d="M0 0 C0.33 0 0.66 0 1 0 C0.98839844 0.68707031 0.97679687 1.37414063 0.96484375 2.08203125 C0.95582031 2.98308594 0.94679688 3.88414063 0.9375 4.8125 C0.92589844 5.70582031 0.91429687 6.59914063 0.90234375 7.51953125 C0.88990033 10.13413791 0.88990033 10.13413791 2 13 C1.01 13.33 0.02 13.66 -1 14 C-1.66 12.68 -2.32 11.36 -3 10 C-2.34 9.67 -1.68 9.34 -1 9 C-0.53348793 6.87423218 -0.53348793 6.87423218 -0.375 4.4375 C-0.30023437 3.61121094 -0.22546875 2.78492188 -0.1484375 1.93359375 C-0.09945313 1.29550781 -0.05046875 0.65742188 0 0 Z " fill="#8468C4" transform="translate(18,14)"/>
<path d="M0 0 C0.33 0 0.66 0 1 0 C1 2.97 1 5.94 1 9 C0.01 8.67 -0.98 8.34 -2 8 C-2 6.02 -2 4.04 -2 2 C-1.34 2 -0.68 2 0 2 C0 1.34 0 0.68 0 0 Z " fill="#F5925D" transform="translate(84,21)"/>
<path d="M0 0 C-0.33 0.66 -0.66 1.32 -1 2 C-2.32 2 -3.64 2 -5 2 C-5.99 3.485 -5.99 3.485 -7 5 C-7.66 4.01 -8.32 3.02 -9 2 C-5.96271914 -1.03728086 -4.06215635 -1.35405212 0 0 Z " fill="#F8A072" transform="translate(132,23)"/>
<path d="M0 0 C0.99 0.33 1.98 0.66 3 1 C3 5 3 5 2 7 C-0.97 6.505 -0.97 6.505 -4 6 C-3 4 -3 4 -1 3 C-0.67 2.01 -0.34 1.02 0 0 Z " fill="#9465E2" transform="translate(9,20)"/>
<path d="M0 0 C0.66 0 1.32 0 2 0 C2 1.98 2 3.96 2 6 C0.02 6.99 0.02 6.99 -2 8 C-2 7.01 -2 6.02 -2 5 C-1.34 5 -0.68 5 0 5 C0 3.35 0 1.7 0 0 Z " fill="#7D5FC5" transform="translate(34,28)"/>
<path d="M0 0 C1.65 0 3.3 0 5 0 C5 0.66 5 1.32 5 2 C5.66 2.33 6.32 2.66 7 3 C4.69 3 2.38 3 0 3 C0 2.01 0 1.02 0 0 Z " fill="#F8B67D" transform="translate(94,25)"/>
<path d="M0 0 C0.66 0 1.32 0 2 0 C2 0.99 2 1.98 2 3 C3.32 3.33 4.64 3.66 6 4 C4.35 4 2.7 4 1 4 C0.67 4.99 0.34 5.98 0 7 C-1.33332095 4.3333581 -0.67102033 2.83319697 0 0 Z " fill="#DF9365" transform="translate(122,17)"/>
<path d="M0 0 C2.0625 0.25 2.0625 0.25 4 1 C4.33 1.66 4.66 2.32 5 3 C3.1875 3.625 3.1875 3.625 1 4 C0.01 3.34 -0.98 2.68 -2 2 C-1.34 1.34 -0.68 0.68 0 0 Z " fill="#AEA0E6" transform="translate(5,14)"/>
<path d="M0 0 C2.31 0 4.62 0 7 0 C6.67 0.99 6.34 1.98 6 3 C4.02 3 2.04 3 0 3 C0 2.01 0 1.02 0 0 Z " fill="#EC8F53" transform="translate(94,14)"/>
<path d="" fill="#A771FD" transform="translate(0,0)"/>
</svg>
